<?xml version="1.0" encoding="utf-8"?>
<!-- Generator: Adobe Illustrator 28.1.0, SVG Export Plug-In . SVG Version: 6.00 Build 0)  -->
<svg version="1.1" id="Layer_1" xmlns="http://www.w3.org/2000/svg" xmlns:xlink="http://www.w3.org/1999/xlink" x="0px" y="0px"
	 viewBox="0 0 1080 1080" style="enable-background:new 0 0 1080 1080;" xml:space="preserve">
<style type="text/css">
	.st0{display:none;fill:none;stroke:url(#SVGID_1_);stroke-miterlimit:10;}
	.st1{fill:url(#SVGID_00000129885732761776773990000017674719043849067156_);}
	.st2{fill:url(#SVGID_00000127742141434617384850000003343655389443819196_);}
	.st3{display:none;fill:url(#SVGID_00000080199272645137054130000016830548258312476060_);}
	.st4{fill:url(#SVGID_00000063596220839942631810000016921808359130315450_);}
	.st5{filter:url(#Adobe_OpacityMaskFilter);}
	.st6{fill:#FFFFFF;}
	.st7{mask:url(#SVGID_00000058554683663256663120000016578128167294768550_);}
	.st8{fill:url(#SVGID_00000182515657490736082150000010194260913099570563_);}
	.st9{display:none;fill:url(#SVGID_00000141451271781127185610000004483656254923330217_);}
	.st10{display:none;fill:url(#SVGID_00000091695783207896459420000002202492945303594150_);}
	.st11{fill:url(#SVGID_00000032627791448084127040000011832857186785911203_);}
	.st12{fill:url(#SVGID_00000097481643249323935670000005097603065627027106_);}
	.st13{fill:url(#SVGID_00000115511463850179889010000007524281471784294065_);}
	.st14{fill:url(#SVGID_00000092419192932161035570000012657205704324117168_);}
	.st15{fill:url(#SVGID_00000048460857077458349640000017435310500559276990_);}
	.st16{fill:url(#SVGID_00000054227521886562893480000017051991379398478223_);}
	.st17{fill:url(#SVGID_00000102519987343085855930000000571130303418748579_);}
</style>
<linearGradient id="SVGID_1_" gradientUnits="userSpaceOnUse" x1="152.0502" y1="331.22839" x2="928.94983" y2="779.77161">
	<stop  offset="1.631956e-07" style="stop-color:#1A7ED6"/>
	<stop  offset="1" style="stop-color:#0F65AF"/>
</linearGradient>
<rect x="218.5" y="217.5" class="st0" width="644" height="676"/>
<linearGradient id="SVGID_00000005258734868283405670000006535669176321371543_" gradientUnits="userSpaceOnUse" x1="691.31238" y1="336.99231" x2="850.68762" y2="429.00769">
	<stop  offset="1.631956e-07" style="stop-color:#1A7ED6"/>
	<stop  offset="1" style="stop-color:#0F65AF"/>
</linearGradient>
<circle style="fill:url(#SVGID_00000005258734868283405670000006535669176321371543_);" cx="771" cy="383" r="92"/>
<linearGradient id="SVGID_00000176737244891653583840000004358959060211539117_" gradientUnits="userSpaceOnUse" x1="232.18597" y1="681.99115" x2="415.81403" y2="788.00885">
	<stop  offset="0" style="stop-color:#76D1FF"/>
	<stop  offset="1" style="stop-color:#4DC3FF"/>
</linearGradient>
<circle style="fill:url(#SVGID_00000176737244891653583840000004358959060211539117_);" cx="324" cy="735" r="106"/>
<linearGradient id="SVGID_00000173146437909931115470000004152468298477573016_" gradientUnits="userSpaceOnUse" x1="267.69894" y1="311.49457" x2="380.30106" y2="376.50543">
	<stop  offset="0" style="stop-color:#76D1FF"/>
	<stop  offset="1" style="stop-color:#4DC3FF"/>
</linearGradient>
<circle style="display:none;fill:url(#SVGID_00000173146437909931115470000004152468298477573016_);" cx="324" cy="344" r="65"/>
<linearGradient id="SVGID_00000047760973526193382380000017938750045042331580_" gradientUnits="userSpaceOnUse" x1="317.46121" y1="426.72852" x2="763.53876" y2="684.27148">
	<stop  offset="1.019972e-08" style="stop-color:#0F65AF"/>
	<stop  offset="1" style="stop-color:#0058A5"/>
</linearGradient>
<circle style="fill:url(#SVGID_00000047760973526193382380000017938750045042331580_);" cx="540.5" cy="555.5" r="257.5"/>
<defs>
	<filter id="Adobe_OpacityMaskFilter" filterUnits="userSpaceOnUse" x="368" y="609" width="346" height="300">
		<feColorMatrix  type="matrix" values="1 0 0 0 0  0 1 0 0 0  0 0 1 0 0  0 0 0 1 0"/>
	</filter>
</defs>
<mask maskUnits="userSpaceOnUse" x="368" y="609" width="346" height="300" id="SVGID_00000111902884896249525150000009737603710035911093_">
	<g class="st5">
		<circle class="st6" cx="540.5" cy="555.5" r="257.5"/>
	</g>
</mask>
<g style="mask:url(#SVGID_00000111902884896249525150000009737603710035911093_);">
	<g>
		
			<linearGradient id="SVGID_00000155136812455376727190000014579372107229813690_" gradientUnits="userSpaceOnUse" x1="390.3757" y1="691.64331" x2="704.0542" y2="872.74567">
			<stop  offset="4.283885e-07" style="stop-color:#F7F7F7"/>
			<stop  offset="1" style="stop-color:#D6D6D6"/>
		</linearGradient>
		<path style="fill:url(#SVGID_00000155136812455376727190000014579372107229813690_);" d="M640.91028,909H441.08975
			C400.72339,909,368,876.27661,368,835.91028v-61.00024C368,683.28046,442.28046,609,533.91003,609h14.17993
			C639.71954,609,714,683.28046,714,774.91003v61.00024C714,876.27661,681.27661,909,640.91028,909z"/>
	</g>
</g>
<linearGradient id="SVGID_00000104676640067892770630000016434595163607044251_" gradientUnits="userSpaceOnUse" x1="791.22681" y1="803.99548" x2="884.77319" y2="858.00452">
	<stop  offset="1.631956e-07" style="stop-color:#1A7ED6"/>
	<stop  offset="1" style="stop-color:#0F65AF"/>
</linearGradient>
<circle style="display:none;fill:url(#SVGID_00000104676640067892770630000016434595163607044251_);" cx="838" cy="831" r="54"/>
<linearGradient id="SVGID_00000142874084684773723320000002709283171261755325_" gradientUnits="userSpaceOnUse" x1="776.487" y1="777.49658" x2="847.513" y2="818.50342">
	<stop  offset="1.019972e-08" style="stop-color:#0F65AF"/>
	<stop  offset="1" style="stop-color:#0058A5"/>
</linearGradient>
<circle style="display:none;fill:url(#SVGID_00000142874084684773723320000002709283171261755325_);" cx="812" cy="798" r="41"/>
<linearGradient id="SVGID_00000062897813965885251690000010578383244608993978_" gradientUnits="userSpaceOnUse" x1="334.17108" y1="778.99365" x2="465.82892" y2="855.00635">
	<stop  offset="1.631956e-07" style="stop-color:#1A7ED6"/>
	<stop  offset="1" style="stop-color:#0F65AF"/>
</linearGradient>
<circle style="fill:url(#SVGID_00000062897813965885251690000010578383244608993978_);" cx="400" cy="817" r="76"/>
<linearGradient id="SVGID_00000165927138694773437270000016733445466882488471_" gradientUnits="userSpaceOnUse" x1="645.16364" y1="313.4949" x2="750.83636" y2="374.5051">
	<stop  offset="3.263912e-07" style="stop-color:#4DC3FF"/>
	<stop  offset="1" style="stop-color:#35AAE5"/>
</linearGradient>
<circle style="fill:url(#SVGID_00000165927138694773437270000016733445466882488471_);" cx="698" cy="344" r="61"/>
<g>
	
		<linearGradient id="SVGID_00000112595005829517263540000018268340904687429310_" gradientUnits="userSpaceOnUse" x1="471.70639" y1="434.99332" x2="610.29358" y2="515.00665">
		<stop  offset="4.283885e-07" style="stop-color:#F7F7F7"/>
		<stop  offset="1" style="stop-color:#D6D6D6"/>
	</linearGradient>
	<circle style="fill:url(#SVGID_00000112595005829517263540000018268340904687429310_);" cx="541" cy="475" r="80"/>
</g>
<linearGradient id="SVGID_00000038398233089773402030000014463451978260923027_" gradientUnits="userSpaceOnUse" x1="793.84564" y1="823.91901" x2="1012.88159" y2="950.37946">
	<stop  offset="0" style="stop-color:#76D1FF"/>
	<stop  offset="1" style="stop-color:#4DC3FF"/>
</linearGradient>
<path style="fill:url(#SVGID_00000038398233089773402030000014463451978260923027_);" d="M967.5,887.5c0,44.1828-35.8172,80-80,80
	h-165c-11.04572,0-20,8.95428-20,20v20c0,11.04572,8.95428,20,20,20h165c77.31989,0,140-62.68011,140-140v-165
	c0-11.04572-8.95428-20-20-20h-20c-11.04572,0-20,8.95428-20,20V887.5z"/>
<linearGradient id="SVGID_00000011025270609870602140000008084395514265592452_" gradientUnits="userSpaceOnUse" x1="701.24652" y1="69.3054" x2="1073.052" y2="283.96735">
	<stop  offset="0" style="stop-color:#76D1FF"/>
	<stop  offset="1" style="stop-color:#4DC3FF"/>
</linearGradient>
<path style="fill:url(#SVGID_00000011025270609870602140000008084395514265592452_);" d="M887.5,52.5h-165
	c-11.04572,0-20,8.9543-20,20v20c0,11.04569,8.95428,20,20,20h165c44.1828,0,80,35.81721,80,80v165c0,11.04568,8.95428,20,20,20h20
	c11.04572,0,20-8.95432,20-20v-165C1027.5,115.18014,964.81989,52.5,887.5,52.5z"/>
<linearGradient id="SVGID_00000019652404368851896700000002200761869354092977_" gradientUnits="userSpaceOnUse" x1="6.94804" y1="796.03265" x2="378.75345" y2="1010.69458">
	<stop  offset="0" style="stop-color:#76D1FF"/>
	<stop  offset="1" style="stop-color:#4DC3FF"/>
</linearGradient>
<path style="fill:url(#SVGID_00000019652404368851896700000002200761869354092977_);" d="M112.5,887.5v-165
	c0-11.04572-8.95431-20-20-20h-20c-11.0457,0-20,8.95428-20,20v165c0,77.31989,62.68014,140,140,140h165
	c11.04568,0,20-8.95428,20-20v-20c0-11.04572-8.95432-20-20-20h-165C148.31721,967.5,112.5,931.6828,112.5,887.5z"/>
<linearGradient id="SVGID_00000091710091162159358290000011757117774067977600_" gradientUnits="userSpaceOnUse" x1="67.11842" y1="129.62053" x2="286.15436" y2="256.08099">
	<stop  offset="0" style="stop-color:#76D1FF"/>
	<stop  offset="1" style="stop-color:#4DC3FF"/>
</linearGradient>
<path style="fill:url(#SVGID_00000091710091162159358290000011757117774067977600_);" d="M52.5,192.5v165
	c0,11.04568,8.9543,20,20,20h20c11.04569,0,20-8.95432,20-20v-165c0-44.18279,35.81721-80,80-80h165c11.04568,0,20-8.95431,20-20
	v-20c0-11.0457-8.95432-20-20-20h-165C115.18014,52.5,52.5,115.18014,52.5,192.5z"/>
</svg>
